<svg width="375" height="62" viewBox="0 0 375 62" fill="none" xmlns="http://www.w3.org/2000/svg">
<path d="M382 20.3766V60H-9V40V21.655C-8.98303 21.6597 -8.96598 21.6644 -8.94885 21.6691C-7.24484 22.1371 -4.75207 22.793 -1.58076 23.5494C4.76098 25.0619 13.8211 26.9773 24.717 28.5955C46.4918 31.8293 75.6808 33.8885 105.186 29.1209C130.22 25.0758 145.817 21.8631 161.163 18.7021C163.765 18.1661 166.36 17.6316 168.993 17.0948C187.129 13.3965 207.103 9.57628 243.662 4.3708C279.958 -0.797163 314.864 3.3182 340.732 8.74555C353.658 11.4576 364.306 14.4929 371.717 16.8478C375.422 18.0251 378.316 19.0318 380.28 19.7425C380.97 19.9923 381.545 20.2055 382 20.3766Z" fill="var(--background-card)" stroke="url(#paint0_linear_251_1133)" stroke-width="4"/>
<defs>
<linearGradient id="paint0_linear_251_1133" x1="186.5" y1="0" x2="186.5" y2="62" gradientUnits="userSpaceOnUse">
<stop stop-color="var(--background-btn)"/>
<stop offset="0.74896" stop-color="var(--background-btn)" stop-opacity="0"/>
</linearGradient>
</defs>
</svg>
